# xmcd
#
# Track frame offsets:
#	187
#	22492
#	43647
#	63477
#	84830
#	103885
#	123517
#	146095
#	166502
#	183790
#	202845
#	225147
#	244187
#	267015
#	291555
#	311355
#
# Disc length: 4389 seconds
#
# Revision: 1
# Processed by: cddbd v1.5PL3 Copyright (c) Steve Scherf et al.
# Submitted via: CDex 1.50Beta5
#
DISCID=d7112310
DTITLE=堀内孝雄 - ベストソングス16
DYEAR=1900
DGENRE=Pop
TTITLE0=坂道
TTITLE1=影法師
TTITLE2=ガキの頃のうように
TTITLE3=夢酔枕
TTITLE4=気にせんといて
TTITLE5=憧れ遊び
TTITLE6=遠き日の少年
TTITLE7=愛が見えますか
TTITLE8=恋唄綴り
TTITLE9=酔いれんぼ
TTITLE10=男でもなく 女でもなく
TTITLE11=終止符(アリス)
TTITLE12=俺の中の人生(たび)びとよ
TTITLE13=都会の天使たち
TTITLE14=いとしき日々
TTITLE15=遠くで汽笛を聞きながら(アリス)
EXTD=
EXTT0=
EXTT1=
EXTT2=
EXTT3=
EXTT4=
EXTT5=
EXTT6=
EXTT7=
EXTT8=
EXTT9=
EXTT10=
EXTT11=
EXTT12=
EXTT13=
EXTT14=
EXTT15=
PLAYORDER=
